<svg class="avatar" width="80px" height="80px" viewBox="0 0 80 80" version="1.1" xmlns="http://www.w3.org/2000/svg" xmlns:xlink="http://www.w3.org/1999/xlink" xmlns:sketch="http://www.bohemiancoding.com/sketch/ns">
    <!-- Generator: Sketch 3.3.3 (12072) - http://www.bohemiancoding.com/sketch -->
    <title>avatar</title>
    <desc>Created with Sketch.</desc>
    <defs></defs>
    <g id="Page-1" stroke="none" stroke-width="1" fill="none" fill-rule="evenodd" sketch:type="MSPage">
        <g id="avatar" sketch:type="MSArtboardGroup">
            <rect id="rettanngolo" fill="#E84C3D" sketch:type="MSShapeGroup" x="0" y="0" width="80" height="80"></rect>
            <path d="M60.3409602,47.0349204 C60.3333476,46.8014663 60.3240433,46.5705497 60.3045888,46.3413248 C60.0922808,44.0795264 59.3411675,42.0554114 58.173051,40.3349559 C56.1083353,42.7735366 53.2096131,44.4728459 49.9175715,45.013343 C50.5595703,45.6062826 50.9681151,46.4445183 50.9867237,47.3834099 C50.990953,47.4510778 51.0044866,47.517054 51.0070241,47.5864135 C51.0002573,49.4159834 49.5149477,50.8987555 47.6828402,50.8987555 C45.8456577,50.8987555 44.3561188,49.4100625 44.3561188,47.5737258 L44.3561188,43.7733293 C44.3603481,43.7741752 44.3688065,31.6650107 44.3688065,31.6650107 C44.3561188,29.7051802 45.8456577,28.2156413 47.6828402,28.2156413 C49.5191769,28.2156413 51.0087158,29.7051802 51.0087158,31.5415169 C51.0087158,33.3778536 49.5191769,34.8673924 47.6828402,34.8673924 C46.8911262,34.8673924 46.1738468,34.5789582 45.6020534,34.117125 L45.6020534,44.0431549 C46.2795779,44.1590362 46.9723276,44.2292416 47.6828402,44.2292416 C54.6890018,44.2292416 60.3705649,38.5485243 60.3705649,31.5415169 C60.3705649,24.5345094 54.6890018,18.8537922 47.6828402,18.8537922 C44.6174859,18.8537922 41.8050403,19.9415531 39.6117556,21.7516685 C37.4193168,19.9415531 34.6068712,18.8537922 31.5415169,18.8537922 C24.5353553,18.8537922 18.8537922,24.5345094 18.8537922,31.5415169 C18.8537922,38.5485243 24.5353553,44.2292416 31.5415169,44.2292416 C32.2520294,44.2292416 32.9447792,44.1590362 33.6223037,44.0431549 L33.6223037,34.117125 C33.0505103,34.5789582 32.3332309,34.8673924 31.5415169,34.8673924 C29.7051802,34.8673924 28.2156413,33.3778536 28.2156413,31.5415169 C28.2156413,29.7051802 29.7051802,28.2156413 31.5415169,28.2156413 C33.3786994,28.2156413 34.8682383,29.7051802 34.8682383,31.5415169 C34.8682383,31.5838093 34.8555506,43.7767127 34.8555506,43.7767127 C34.8597798,43.775021 34.8682383,47.5737258 34.8682383,47.5737258 C34.8682383,49.4100625 33.3786994,50.8987555 31.5415169,50.8987555 C29.7094094,50.8987555 28.2240998,49.4159834 28.217333,47.5864135 C28.2198705,47.517054 28.2334041,47.4510778 28.2376334,47.3834099 C28.256242,46.4445183 28.6647867,45.6062826 29.3067856,45.013343 C26.014744,44.4728459 23.1160218,42.7735366 21.0513061,40.3349559 C19.8831896,42.0554114 19.1320763,44.0795264 18.9290727,46.2626609 C18.9003138,46.5705497 18.8910095,46.8014663 18.8833969,47.0349204 C18.8749384,47.2150861 18.8563297,47.3918684 18.8554839,47.5737258 C18.8740925,54.5976502 24.5463513,60.2614505 31.5415169,60.2614505 C34.6068712,60.2614505 37.4193168,59.1736896 39.6117556,57.3635742 C41.8050403,59.1736896 44.6174859,60.2614505 47.6828402,60.2614505 C54.6780058,60.2614505 60.3502646,54.5976502 60.3688732,47.6084056" id="gp" fill="#FFFFFF" sketch:type="MSShapeGroup"></path>
            <path d="M40,73.5539551 C58.5313377,73.5539551 73.5539551,58.5313377 73.5539551,40 C73.5539551,21.4686623 58.5313377,6.44604492 40,6.44604492 C21.4686623,6.44604492 6.44604492,21.4686623 6.44604492,40 C6.44604492,58.5313377 21.4686623,73.5539551 40,73.5539551 L40,73.5539551 Z M40,71.0684769 C22.841354,71.0684769 8.93152308,57.158646 8.93152308,40 C8.93152308,22.841354 22.841354,8.93152308 40,8.93152308 C57.158646,8.93152308 71.0684769,22.841354 71.0684769,40 C71.0684769,57.158646 57.158646,71.0684769 40,71.0684769 L40,71.0684769 Z" id="cerchio" fill="#FFFFFF" sketch:type="MSShapeGroup"></path>
        </g>
    </g>
</svg>